<svg id="Capa_1" enable-background="new 0 0 512 512" height="512" viewBox="0 0 512 512" width="512" xmlns="http://www.w3.org/2000/svg"><g><g><path d="m444.622 379.429c-20.005 0-38.841-8.784-51.677-24.099l-48.216-57.526c-1.737-2.072-2.88-4.577-3.308-7.247l-37.88-240.839c-.552-3.452.123-6.989 1.909-9.996 14.549-24.502 41.313-39.722 69.846-39.722h55.511c44.77 0 81.193 36.358 81.193 81.048v231.123c0 37.086-30.226 67.258-67.378 67.258z" fill="#697c86"/></g><g><path d="m67.378 379.429c-37.152 0-67.378-30.172-67.378-67.257v-231.124c0-44.69 36.423-81.048 81.194-81.048h55.51c28.533 0 55.296 15.22 69.845 39.722 1.786 3.007 2.461 6.544 1.909 9.996l-37.88 240.839c-.427 2.67-1.57 5.174-3.308 7.247l-48.216 57.526c-12.837 15.315-31.672 24.099-51.676 24.099z" fill="#8d9ca8"/></g><g><path d="m122.302 450.48c-3.869 0-7.737-1.485-10.671-4.451-5.822-5.883-5.765-15.364.128-21.178 20.315-20.037 31.966-47.881 31.966-76.391v-44.923c0-8.27 6.716-14.975 15-14.975s15 6.705 15 14.975v44.923c0 36.462-14.9 72.071-40.881 97.698-2.924 2.883-6.734 4.322-10.542 4.322z" fill="#ececf1"/></g><g><path d="m389.698 450.48c-3.809 0-7.618-1.439-10.541-4.322-25.981-25.627-40.882-61.236-40.882-97.698v-44.923c0-8.27 6.716-14.975 15-14.975s15 6.705 15 14.975v44.923c0 28.51 11.651 56.354 31.966 76.391 5.894 5.813 5.951 15.295.129 21.178-2.934 2.965-6.803 4.451-10.672 4.451z" fill="#d3d3d8"/></g><g><path d="m256 512c-10.381 0-20.761-3.116-29.62-9.347-11.232-7.901-18.935-20.196-21.135-33.733l-16.27-100.071c-1.156-7.11-5.692-13.291-12.134-16.535l-79.101-39.826c-17.331-8.726-28.097-26.183-28.097-45.559v-94.381c0-31.464 12.958-62.094 35.551-84.036l32.156-31.228c22.051-21.415 51.139-33.209 81.905-33.209h73.488c30.766 0 59.854 11.794 81.904 33.21l32.156 31.228c22.593 21.942 35.551 52.572 35.551 84.036v94.381c0 19.375-10.766 36.832-28.096 45.559l-79.102 39.826c-6.441 3.243-10.978 9.424-12.135 16.535l-16.268 100.071c-2.202 13.538-9.905 25.833-21.136 33.733-8.855 6.23-19.236 9.346-29.617 9.346z" fill="#9facba"/></g><g><path d="m406.805 88.512-32.156-31.228c-22.051-21.416-51.139-33.21-81.904-33.21h-36.745v487.926c10.381 0 20.762-3.116 29.62-9.347 11.23-7.9 18.934-20.195 21.136-33.733l16.268-100.071c1.157-7.11 5.693-13.292 12.135-16.535l79.102-39.826c17.33-8.727 28.096-26.183 28.096-45.559v-94.381c-.002-31.465-12.96-62.094-35.552-84.036z" fill="#8d9ca8"/></g><g><path d="m160 254.585c-8.284 0-15-6.705-15-14.975v-29.95c0-8.27 6.716-14.975 15-14.975s15 6.705 15 14.975v29.95c0 8.271-6.716 14.975-15 14.975z" fill="#444"/></g><g><path d="m352 254.585c-8.284 0-15-6.705-15-14.975v-29.95c0-8.27 6.716-14.975 15-14.975s15 6.705 15 14.975v29.95c0 8.271-6.716 14.975-15 14.975z" fill="#292929"/></g></g></svg>